# xmcd
#
# Track frame offsets:
#	150
#	3841
#	7372
#	10384
#	13338
#	15731
#	18622
#	20112
#	23581
#	27172
#	29760
#	34818
#	37469
#	40475
#	42725
#	45272
#	48013
#	51002
#	54495
#	56116
#	59330
#	61719
#	63116
#	69009
#	72213
#	74554
#	76766
#	82000
#	86254
#	88896
#	92098
#	96129
#	98739
#	102831
#	116726
#	120055
#	122889
#	126573
#	130835
#	134765
#	138837
#	140471
#	143579
#	147638
#	152918
#	155201
#	157789
#	158896
#	161400
#	164496
#	167074
#	170668
#	172960
#	175608
#	177293
#	181067
#	183203
#	186460
#	187630
#	191927
#	194731
#	198987
#	202036
#	207447
#	209074
#	212204
#	215680
#	216309
#	219046
#	222221
#	225574
#	230378
#	235854
#	238103
#	242984
#	246378
#	252519
#	255078
#	258702
#	260536
#	263456
#	265283
#	268253
#	271937
#	273969
#	279039
#	283535
#	285588
#	286430
#	287484
#	290239
#	294013
#	299413
#	302069
#
# Disc length: 4061 seconds
#
# Revision: 1
# Processed by: cddbd v1.5.1PL0 Copyright (c) Steve Scherf et al.
# Submitted via: CDex 1.50Beta5
#
DISCID=940fdb5e
DTITLE=エンジェル隊 - 日めくりCDギャラクシーエンジェル3
DYEAR=1900
DGENRE=
TTITLE0=使用上のご注意
TTITLE1=7月1日 今日は何の日1
TTITLE2=7月2日 赤貧戦隊ダイビンボー 第3話
TTITLE3=7月3日 わてら陽気なエンジェル隊
TTITLE4=7月4日 G☆A名物!?
TTITLE5=7月5日 奴の名は……
TTITLE6=7月6日 今日のあなたのラッキーアイテム
TTITLE7=7月7日 みんなの願い
TTITLE8=7月8日 はっぴーばーすでー?パトリック
TTITLE9=7月9日 メアリー少佐の部屋1
TTITLE10=7月10日 戦え!仮面ミント その2
TTITLE11=7月11日 ラブレター フロム マッチョ
TTITLE12=7月12日 お大事に
TTITLE13=7月13日 ペイローズシリアス劇場 第一話
TTITLE14=7月14日 パン・ド・カンパー?
TTITLE15=7月15日 今日は何の日2
TTITLE16=7月16日 ￥0
TTITLE17=7月17日 G☆A バンド結成!?
TTITLE18=7月18日 エンジェル隊の想い出 ヴァニラ篇
TTITLE19=7月19日 そういえば……
TTITLE20=7月20日 今日は何の日3
TTITLE21=7月21日 対異常熱源
TTITLE22=7月22日 世界一への道
TTITLE23=7月23日 お殿様~ッ!
TTITLE24=7月24日 今日は何の日4
TTITLE25=7月25日 今日は何の日5
TTITLE26=7月26日 あなたも知らない世界
TTITLE27=7月27日 ペイローズシリアス劇場 第ニ話
TTITLE28=7月28日 エンジェル隊の想い出 フォルテ篇
TTITLE29=7月29日 SOS
TTITLE30=7月30日 エンジェル隊、変身を語る
TTITLE31=7月31日 LUCKY GIRL?
TTITLE32=8月1日 今日は何の日6
TTITLE33=8月2日 勝負!
TTITLE34=8月3日 G☆A基地緊急給湯室・GR 第一話
TTITLE35=8月4日 G☆A基地緊急給湯室・GR 第二話
TTITLE36=8月5日 G☆A基地緊急給湯室・GR 第三話
TTITLE37=8月6日 G☆A基地緊急給湯室・GR 第四話
TTITLE38=8月7日 G☆A基地緊急給湯室・GR 第五話
TTITLE39=8月8日 G☆A基地緊急給湯室・GR 最終話
TTITLE40=8月9日 暑き日に
TTITLE41=8月10日 メアリー少佐の部屋2
TTITLE42=8月11日 喰らえッ、必殺魔球!
TTITLE43=8月12日 レコードじゃないのね
TTITLE44=8月13日 双子なんですよ?
TTITLE45=8月14日 2種類のバンソーコー
TTITLE46=8月15日 平和に祈りを
TTITLE47=8月16日 額の印
TTITLE48=8月17日 オチムシャ
TTITLE49=8月18日 24時間○○ますか?
TTITLE50=8月19日 今日は何の日7
TTITLE51=8月20日 夏休みもあと11日
TTITLE52=8月21日 美しさ……、それは罪
TTITLE53=8月22日 7年と7日
TTITLE54=8月23日 エンジェル隊の想い出 ミント篇
TTITLE55=8月24日 奴の名は……?
TTITLE56=8月25日 拉麺談議
TTITLE57=8月26日 夏休みもあと5日
TTITLE58=8月27日 よくある事?
TTITLE59=8月28日 試験対策
TTITLE60=8月29日 今日は何の日8
TTITLE61=8月30日 今日は何の日9
TTITLE62=8月31日 嗚呼、夏休み……
TTITLE63=9月1日 備えあれば憂いなし
TTITLE64=9月2日 ツインスター隊の希望
TTITLE65=9月3日 だから、奴の名は……?
TTITLE66=9月4日 以上!
TTITLE67=9月5日 ペイローズシリアス劇場 第三話
TTITLE68=9月6日 メアリー少佐の部屋3
TTITLE69=9月7日 一泊二日の調査隊
TTITLE70=9月8日 祭りだ祭り!
TTITLE71=9月9日 白き超新星の狼
TTITLE72=9月10日 エンジェル隊の想い出 蘭花篇
TTITLE73=9月11日 名付け親は?
TTITLE74=9月12日 ペイローズシリアス劇場 最終回
TTITLE75=9月13日 ピクニック♪
TTITLE76=9月14日 今日は何の日10
TTITLE77=9月15日 中佐に感謝
TTITLE78=9月16日 メッセージ フロム マッチョ
TTITLE79=9月17日 おまえ……
TTITLE80=9月18日 メアリーのラッキーアドバイス
TTITLE81=9月19日 エンジェル隊の想い出 ミルフィーユ篇
TTITLE82=9月20日 再会。
TTITLE83=9月21日 スタジアムにて
TTITLE84=9月22日 紅に染まる日
TTITLE85=9月23日 必殺!エンジェル隊
TTITLE86=9月24日 今日は何の日11
TTITLE87=9月25日 あと5日
TTITLE88=9月26日 予告
TTITLE89=9月27日 テッチャン?
TTITLE90=9月28日 スポーツの秋
TTITLE91=9月29日 この子、誰の子
TTITLE92=9月30日 あの話しは?
TTITLE93=あとは楽しい90日!?
EXTD=
EXTT0=
EXTT1=
EXTT2=
EXTT3=
EXTT4=
EXTT5=
EXTT6=
EXTT7=
EXTT8=
EXTT9=
EXTT10=
EXTT11=
EXTT12=
EXTT13=
EXTT14=
EXTT15=
EXTT16=
EXTT17=
EXTT18=
EXTT19=
EXTT20=
EXTT21=
EXTT22=
EXTT23=
EXTT24=
EXTT25=
EXTT26=
EXTT27=
EXTT28=
EXTT29=
EXTT30=
EXTT31=
EXTT32=
EXTT33=
EXTT34=
EXTT35=
EXTT36=
EXTT37=
EXTT38=
EXTT39=
EXTT40=
EXTT41=
EXTT42=
EXTT43=
EXTT44=
EXTT45=
EXTT46=
EXTT47=
EXTT48=
EXTT49=
EXTT50=
EXTT51=
EXTT52=
EXTT53=
EXTT54=
EXTT55=
EXTT56=
EXTT57=
EXTT58=
EXTT59=
EXTT60=
EXTT61=
EXTT62=
EXTT63=
EXTT64=
EXTT65=
EXTT66=
EXTT67=
EXTT68=
EXTT69=
EXTT70=
EXTT71=
EXTT72=
EXTT73=
EXTT74=
EXTT75=
EXTT76=
EXTT77=
EXTT78=
EXTT79=
EXTT80=
EXTT81=
EXTT82=
EXTT83=
EXTT84=
EXTT85=
EXTT86=
EXTT87=
EXTT88=
EXTT89=
EXTT90=
EXTT91=
EXTT92=
EXTT93=
PLAYORDER=
